<svg width="1080" height="1080" viewBox="0 0 1080 1080" fill="none" xmlns="http://www.w3.org/2000/svg">
<g clip-path="url(#clip0_2900_2888)">
<rect width="1080" height="1080" rx="72" fill="#F8DDB0"/>
<path d="M921.749 540.273C921.749 627.716 904.746 701.48 870.74 761.565C836.735 821.395 790.84 866.778 733.056 897.716C675.272 928.398 610.84 943.739 539.76 943.739C468.169 943.739 403.482 928.27 345.698 897.332C288.169 866.139 242.402 820.628 208.397 760.798C174.647 700.713 157.772 627.205 157.772 540.273C157.772 452.83 174.647 379.193 208.397 319.364C242.402 259.278 288.169 213.895 345.698 183.213C403.482 152.276 468.169 136.807 539.76 136.807C610.84 136.807 675.272 152.276 733.056 183.213C790.84 213.895 836.735 259.278 870.74 319.364C904.746 379.193 921.749 452.83 921.749 540.273ZM702.374 540.273C702.374 493.227 696.11 453.597 683.581 421.381C671.309 388.909 653.027 364.364 628.738 347.744C604.703 330.869 575.044 322.432 539.76 322.432C504.476 322.432 474.689 330.869 450.4 347.744C426.365 364.364 408.084 388.909 395.556 421.381C383.283 453.597 377.147 493.227 377.147 540.273C377.147 587.318 383.283 627.077 395.556 659.548C408.084 691.764 426.365 716.31 450.4 733.185C474.689 749.804 504.476 758.114 539.76 758.114C575.044 758.114 604.703 749.804 628.738 733.185C653.027 716.31 671.309 691.764 683.581 659.548C696.11 627.077 702.374 587.318 702.374 540.273Z" fill="#5B1E0C"/>
</g>
<defs>
<clipPath id="clip0_2900_2888">
<rect width="1080" height="1080" rx="72" fill="white"/>
</clipPath>
</defs>
</svg>
