<svg width="974" height="194" viewBox="0 0 974 194" fill="none" xmlns="http://www.w3.org/2000/svg">
<path d="M268.871 184V39H217.871V8.99999H352.871V39H301.871V184H268.871ZM359.254 184V60H390.254V74H394.754C396.587 69 399.587 65.3333 403.754 63C408.087 60.6667 413.087 59.5 418.754 59.5H433.754V87.5H418.254C410.254 87.5 403.671 89.6667 398.504 94C393.337 98.1667 390.754 104.667 390.754 113.5V184H359.254ZM510.48 187.5C498.147 187.5 487.23 184.917 477.73 179.75C468.397 174.417 461.064 167 455.73 157.5C450.564 147.833 447.98 136.5 447.98 123.5V120.5C447.98 107.5 450.564 96.25 455.73 86.75C460.897 77.0833 468.147 69.6667 477.48 64.5C486.814 59.1667 497.647 56.5 509.98 56.5C522.147 56.5 532.73 59.25 541.73 64.75C550.73 70.0833 557.73 77.5833 562.73 87.25C567.73 96.75 570.23 107.833 570.23 120.5V131.25H479.98C480.314 139.75 483.48 146.667 489.48 152C495.48 157.333 502.814 160 511.48 160C520.314 160 526.814 158.083 530.98 154.25C535.147 150.417 538.314 146.167 540.48 141.5L566.23 155C563.897 159.333 560.48 164.083 555.98 169.25C551.647 174.25 545.814 178.583 538.48 182.25C531.147 185.75 521.814 187.5 510.48 187.5ZM480.23 107.75H538.23C537.564 100.583 534.647 94.8333 529.48 90.5C524.48 86.1667 517.897 84 509.73 84C501.23 84 494.48 86.1667 489.48 90.5C484.48 94.8333 481.397 100.583 480.23 107.75ZM672.768 187.5C661.601 187.5 653.018 185.583 647.018 181.75C641.018 177.917 636.601 173.667 633.768 169H629.268V184H598.268V8.99999H629.768V74.25H634.268C636.101 71.25 638.518 68.4167 641.518 65.75C644.684 63.0833 648.768 60.9167 653.768 59.25C658.934 57.4167 665.268 56.5 672.768 56.5C682.768 56.5 692.018 59 700.518 64C709.018 68.8333 715.851 76 721.018 85.5C726.184 95 728.768 106.5 728.768 120V124C728.768 137.5 726.184 149 721.018 158.5C715.851 168 709.018 175.25 700.518 180.25C692.018 185.083 682.768 187.5 672.768 187.5ZM663.268 160C672.934 160 681.018 156.917 687.518 150.75C694.018 144.417 697.268 135.25 697.268 123.25V120.75C697.268 108.75 694.018 99.6667 687.518 93.5C681.184 87.1667 673.101 84 663.268 84C653.601 84 645.518 87.1667 639.018 93.5C632.518 99.6667 629.268 108.75 629.268 120.75V123.25C629.268 135.25 632.518 144.417 639.018 150.75C645.518 156.917 653.601 160 663.268 160ZM757.691 184V8.99999H789.191V184H757.691ZM862.598 187.5C853.764 187.5 845.848 186 838.848 183C831.848 179.833 826.264 175.333 822.098 169.5C818.098 163.5 816.098 156.25 816.098 147.75C816.098 139.25 818.098 132.167 822.098 126.5C826.264 120.667 831.931 116.333 839.098 113.5C846.431 110.5 854.764 109 864.098 109H898.098V102C898.098 96.1667 896.264 91.4167 892.598 87.75C888.931 83.9167 883.098 82 875.098 82C867.264 82 861.431 83.8333 857.598 87.5C853.764 91 851.264 95.5833 850.098 101.25L821.098 91.5C823.098 85.1667 826.264 79.4167 830.598 74.25C835.098 68.9167 841.014 64.6667 848.348 61.5C855.848 58.1667 864.931 56.5 875.598 56.5C891.931 56.5 904.848 60.5833 914.348 68.75C923.848 76.9167 928.598 88.75 928.598 104.25V150.5C928.598 155.5 930.931 158 935.598 158H945.598V184H924.598C918.431 184 913.348 182.5 909.348 179.5C905.348 176.5 903.348 172.5 903.348 167.5V167.25H898.598C897.931 169.25 896.431 171.917 894.098 175.25C891.764 178.417 888.098 181.25 883.098 183.75C878.098 186.25 871.264 187.5 862.598 187.5ZM868.098 162C876.931 162 884.098 159.583 889.598 154.75C895.264 149.75 898.098 143.167 898.098 135V132.5H866.348C860.514 132.5 855.931 133.75 852.598 136.25C849.264 138.75 847.598 142.25 847.598 146.75C847.598 151.25 849.348 154.917 852.848 157.75C856.348 160.583 861.431 162 868.098 162Z" fill="#2563EB"/>
<path d="M61.5123 33.7516C61.5123 50.7418 47.7424 64.5115 30.752 64.5115C13.7699 64.5115 0 50.7418 0 33.7516C0 16.7697 13.7699 3 30.752 3C47.7424 3 61.5123 16.7697 61.5123 33.7516Z" fill="#2563EB"/>
<path d="M125.257 97.4938C125.257 114.484 111.487 128.254 94.4971 128.254C77.515 128.254 63.7451 114.484 63.7451 97.4938C63.7451 80.5119 77.515 66.7422 94.4971 66.7422C111.487 66.7422 125.257 80.5119 125.257 97.4938Z" fill="#2563EB"/>
<path d="M189 161.24C189 178.23 175.23 192 158.24 192C141.258 192 127.488 178.23 127.488 161.24C127.488 144.258 141.258 130.488 158.24 130.488C175.23 130.488 189 144.258 189 161.24Z" fill="#2563EB"/>
</svg>
