<svg width="985" height="198" viewBox="0 0 985 198" fill="none" xmlns="http://www.w3.org/2000/svg">
<path d="M274.371 186V41H223.371V11H358.371V41H307.371V186H274.371ZM364.754 186V62H395.754V76H400.254C402.087 71 405.087 67.3333 409.254 65C413.587 62.6667 418.587 61.5 424.254 61.5H439.254V89.5H423.754C415.754 89.5 409.171 91.6667 404.004 96C398.837 100.167 396.254 106.667 396.254 115.5V186H364.754ZM515.98 189.5C503.647 189.5 492.73 186.917 483.23 181.75C473.897 176.417 466.564 169 461.23 159.5C456.064 149.833 453.48 138.5 453.48 125.5V122.5C453.48 109.5 456.064 98.25 461.23 88.75C466.397 79.0833 473.647 71.6667 482.98 66.5C492.314 61.1667 503.147 58.5 515.48 58.5C527.647 58.5 538.23 61.25 547.23 66.75C556.23 72.0833 563.23 79.5833 568.23 89.25C573.23 98.75 575.73 109.833 575.73 122.5V133.25H485.48C485.814 141.75 488.98 148.667 494.98 154C500.98 159.333 508.314 162 516.98 162C525.814 162 532.314 160.083 536.48 156.25C540.647 152.417 543.814 148.167 545.98 143.5L571.73 157C569.397 161.333 565.98 166.083 561.48 171.25C557.147 176.25 551.314 180.583 543.98 184.25C536.647 187.75 527.314 189.5 515.98 189.5ZM485.73 109.75H543.73C543.064 102.583 540.147 96.8333 534.98 92.5C529.98 88.1667 523.397 86 515.23 86C506.73 86 499.98 88.1667 494.98 92.5C489.98 96.8333 486.897 102.583 485.73 109.75ZM678.268 189.5C667.101 189.5 658.518 187.583 652.518 183.75C646.518 179.917 642.101 175.667 639.268 171H634.768V186H603.768V11H635.268V76.25H639.768C641.601 73.25 644.018 70.4167 647.018 67.75C650.184 65.0833 654.268 62.9167 659.268 61.25C664.434 59.4167 670.768 58.5 678.268 58.5C688.268 58.5 697.518 61 706.018 66C714.518 70.8333 721.351 78 726.518 87.5C731.684 97 734.268 108.5 734.268 122V126C734.268 139.5 731.684 151 726.518 160.5C721.351 170 714.518 177.25 706.018 182.25C697.518 187.083 688.268 189.5 678.268 189.5ZM668.768 162C678.434 162 686.518 158.917 693.018 152.75C699.518 146.417 702.768 137.25 702.768 125.25V122.75C702.768 110.75 699.518 101.667 693.018 95.5C686.684 89.1667 678.601 86 668.768 86C659.101 86 651.018 89.1667 644.518 95.5C638.018 101.667 634.768 110.75 634.768 122.75V125.25C634.768 137.25 638.018 146.417 644.518 152.75C651.018 158.917 659.101 162 668.768 162ZM763.191 186V11H794.691V186H763.191ZM868.098 189.5C859.264 189.5 851.348 188 844.348 185C837.348 181.833 831.764 177.333 827.598 171.5C823.598 165.5 821.598 158.25 821.598 149.75C821.598 141.25 823.598 134.167 827.598 128.5C831.764 122.667 837.431 118.333 844.598 115.5C851.931 112.5 860.264 111 869.598 111H903.598V104C903.598 98.1667 901.764 93.4167 898.098 89.75C894.431 85.9167 888.598 84 880.598 84C872.764 84 866.931 85.8333 863.098 89.5C859.264 93 856.764 97.5833 855.598 103.25L826.598 93.5C828.598 87.1667 831.764 81.4167 836.098 76.25C840.598 70.9167 846.514 66.6667 853.848 63.5C861.348 60.1667 870.431 58.5 881.098 58.5C897.431 58.5 910.348 62.5833 919.848 70.75C929.348 78.9167 934.098 90.75 934.098 106.25V152.5C934.098 157.5 936.431 160 941.098 160H951.098V186H930.098C923.931 186 918.848 184.5 914.848 181.5C910.848 178.5 908.848 174.5 908.848 169.5V169.25H904.098C903.431 171.25 901.931 173.917 899.598 177.25C897.264 180.417 893.598 183.25 888.598 185.75C883.598 188.25 876.764 189.5 868.098 189.5ZM873.598 164C882.431 164 889.598 161.583 895.098 156.75C900.764 151.75 903.598 145.167 903.598 137V134.5H871.848C866.014 134.5 861.431 135.75 858.098 138.25C854.764 140.75 853.098 144.25 853.098 148.75C853.098 153.25 854.848 156.917 858.348 159.75C861.848 162.583 866.931 164 873.598 164Z" fill="white"/>
<path d="M61.5123 35.7516C61.5123 52.7418 47.7424 66.5115 30.752 66.5115C13.7699 66.5115 0 52.7418 0 35.7516C0 18.7697 13.7699 5 30.752 5C47.7424 5 61.5123 18.7697 61.5123 35.7516Z" fill="white"/>
<path d="M125.257 99.4938C125.257 116.484 111.487 130.254 94.4971 130.254C77.515 130.254 63.7451 116.484 63.7451 99.4938C63.7451 82.5119 77.515 68.7422 94.4971 68.7422C111.487 68.7422 125.257 82.5119 125.257 99.4938Z" fill="white"/>
<path d="M189 163.24C189 180.23 175.23 194 158.24 194C141.258 194 127.488 180.23 127.488 163.24C127.488 146.258 141.258 132.488 158.24 132.488C175.23 132.488 189 146.258 189 163.24Z" fill="white"/>
</svg>
